<svg xmlns="http://www.w3.org/2000/svg" version="1.1" xmlns:xlink="http://www.w3.org/1999/xlink" xmlns:svgjs="http://svgjs.com/svgjs" width="1440" height="560" preserveAspectRatio="none" viewBox="0 0 1440 560"><g mask="url(&quot;#SvgjsMask2412&quot;)" fill="none"><rect width="1440" height="560" x="0" y="0" fill="url(#SvgjsRadialGradient2413)"></rect><path d="M-38.46 395.58L-38.46 395.58" stroke="#132e65" stroke-width="1.5"></path><path d="M-38.46 395.58L41.02 365.73" stroke="#132e65" stroke-width="1.5"></path><path d="M-38.46 395.58L-89.55 513.13" stroke="#132e65" stroke-width="1.5"></path><path d="M-38.46 395.58L56.32 522.18" stroke="#132e65" stroke-width="1.5"></path><path d="M-38.46 395.58L203.08 362.88" stroke="#132e65" stroke-width="1.5"></path><path d="M-38.46 395.58L-100.05 696.5" stroke="#132e65" stroke-width="1.5"></path><path d="M-89.55 513.13L-89.55 513.13" stroke="#132e65" stroke-width="1.5"></path><path d="M-89.55 513.13L56.32 522.18" stroke="#132e65" stroke-width="1.5"></path><path d="M-89.55 513.13L-100.05 696.5" stroke="#132e65" stroke-width="1.5"></path><path d="M-100.05 696.5L-100.05 696.5" stroke="#132e65" stroke-width="1.5"></path><path d="M-100.05 696.5L48.58 708.34" stroke="#132e65" stroke-width="1.5"></path><path d="M-100.05 696.5L56.32 522.18" stroke="#132e65" stroke-width="1.5"></path><path d="M41.02 365.73L41.02 365.73" stroke="#132e65" stroke-width="1.5"></path><path d="M41.02 365.73L56.32 522.18" stroke="#132e65" stroke-width="1.5"></path><path d="M41.02 365.73L203.08 362.88" stroke="#132e65" stroke-width="1.5"></path><path d="M56.32 522.18L56.32 522.18" stroke="#132e65" stroke-width="1.5"></path><path d="M56.32 522.18L48.58 708.34" stroke="#132e65" stroke-width="1.5"></path><path d="M56.32 522.18L245.07 550.94" stroke="#132e65" stroke-width="1.5"></path><path d="M56.32 522.18L203.08 362.88" stroke="#132e65" stroke-width="1.5"></path><path d="M48.58 708.34L48.58 708.34" stroke="#132e65" stroke-width="1.5"></path><path d="M203.08 362.88L203.08 362.88" stroke="#132e65" stroke-width="1.5"></path><path d="M203.08 362.88L367.93 386.21" stroke="#132e65" stroke-width="1.5"></path><path d="M203.08 362.88L245.07 550.94" stroke="#132e65" stroke-width="1.5"></path><path d="M245.07 550.94L245.07 550.94" stroke="#132e65" stroke-width="1.5"></path><path d="M245.07 550.94L210.07 684.9" stroke="#132e65" stroke-width="1.5"></path><path d="M210.07 684.9L210.07 684.9" stroke="#132e65" stroke-width="1.5"></path><path d="M210.07 684.9L359.46 688.41" stroke="#132e65" stroke-width="1.5"></path><path d="M210.07 684.9L48.58 708.34" stroke="#132e65" stroke-width="1.5"></path><path d="M210.07 684.9L56.32 522.18" stroke="#132e65" stroke-width="1.5"></path><path d="M210.07 684.9L392.63 547.89" stroke="#132e65" stroke-width="1.5"></path><path d="M210.07 684.9L-100.05 696.5" stroke="#132e65" stroke-width="1.5"></path><path d="M367.93 386.21L367.93 386.21" stroke="#132e65" stroke-width="1.5"></path><path d="M367.93 386.21L392.63 547.89" stroke="#132e65" stroke-width="1.5"></path><path d="M367.93 386.21L532.22 351.53" stroke="#132e65" stroke-width="1.5"></path><path d="M367.93 386.21L245.07 550.94" stroke="#132e65" stroke-width="1.5"></path><path d="M392.63 547.89L392.63 547.89" stroke="#132e65" stroke-width="1.5"></path><path d="M392.63 547.89L359.46 688.41" stroke="#132e65" stroke-width="1.5"></path><path d="M392.63 547.89L245.07 550.94" stroke="#132e65" stroke-width="1.5"></path><path d="M359.46 688.41L359.46 688.41" stroke="#132e65" stroke-width="1.5"></path><path d="M532.22 351.53L532.22 351.53" stroke="#132e65" stroke-width="1.5"></path><path d="M532.22 351.53L661.94 401.93" stroke="#132e65" stroke-width="1.5"></path><path d="M532.22 351.53L554.51 503.19" stroke="#132e65" stroke-width="1.5"></path><path d="M532.22 351.53L652.78 507.67" stroke="#132e65" stroke-width="1.5"></path><path d="M554.51 503.19L554.51 503.19" stroke="#132e65" stroke-width="1.5"></path><path d="M554.51 503.19L652.78 507.67" stroke="#132e65" stroke-width="1.5"></path><path d="M554.51 503.19L534.74 647.69" stroke="#132e65" stroke-width="1.5"></path><path d="M554.51 503.19L661.94 401.93" stroke="#132e65" stroke-width="1.5"></path><path d="M534.74 647.69L534.74 647.69" stroke="#132e65" stroke-width="1.5"></path><path d="M534.74 647.69L645.81 698.68" stroke="#132e65" stroke-width="1.5"></path><path d="M534.74 647.69L392.63 547.89" stroke="#132e65" stroke-width="1.5"></path><path d="M677.04 215.14L677.04 215.14" stroke="#132e65" stroke-width="1.5"></path><path d="M677.04 215.14L851.58 213.25" stroke="#132e65" stroke-width="1.5"></path><path d="M677.04 215.14L792.31 351.39" stroke="#132e65" stroke-width="1.5"></path><path d="M677.04 215.14L661.94 401.93" stroke="#132e65" stroke-width="1.5"></path><path d="M661.94 401.93L661.94 401.93" stroke="#132e65" stroke-width="1.5"></path><path d="M661.94 401.93L652.78 507.67" stroke="#132e65" stroke-width="1.5"></path><path d="M661.94 401.93L792.31 351.39" stroke="#132e65" stroke-width="1.5"></path><path d="M661.94 401.93L861.23 557.26" stroke="#132e65" stroke-width="1.5"></path><path d="M652.78 507.67L652.78 507.67" stroke="#132e65" stroke-width="1.5"></path><path d="M652.78 507.67L534.74 647.69" stroke="#132e65" stroke-width="1.5"></path><path d="M652.78 507.67L645.81 698.68" stroke="#132e65" stroke-width="1.5"></path><path d="M645.81 698.68L645.81 698.68" stroke="#132e65" stroke-width="1.5"></path><path d="M645.81 698.68L797.06 700.94" stroke="#132e65" stroke-width="1.5"></path><path d="M851.58 213.25L851.58 213.25" stroke="#132e65" stroke-width="1.5"></path><path d="M851.58 213.25L943.75 226.24" stroke="#132e65" stroke-width="1.5"></path><path d="M851.58 213.25L792.31 351.39" stroke="#132e65" stroke-width="1.5"></path><path d="M792.31 351.39L792.31 351.39" stroke="#132e65" stroke-width="1.5"></path><path d="M861.23 557.26L861.23 557.26" stroke="#132e65" stroke-width="1.5"></path><path d="M861.23 557.26L939.95 549.04" stroke="#132e65" stroke-width="1.5"></path><path d="M861.23 557.26L797.06 700.94" stroke="#132e65" stroke-width="1.5"></path><path d="M861.23 557.26L977.14 668.06" stroke="#132e65" stroke-width="1.5"></path><path d="M861.23 557.26L652.78 507.67" stroke="#132e65" stroke-width="1.5"></path><path d="M797.06 700.94L797.06 700.94" stroke="#132e65" stroke-width="1.5"></path><path d="M797.06 700.94L977.14 668.06" stroke="#132e65" stroke-width="1.5"></path><path d="M960.9 -103.19L960.9 -103.19" stroke="#132e65" stroke-width="1.5"></path><path d="M960.9 -103.19L1007.75 53.58" stroke="#132e65" stroke-width="1.5"></path><path d="M960.9 -103.19L1160.51 -60.44" stroke="#132e65" stroke-width="1.5"></path><path d="M960.9 -103.19L1155.54 52.53" stroke="#132e65" stroke-width="1.5"></path><path d="M1007.75 53.58L1007.75 53.58" stroke="#132e65" stroke-width="1.5"></path><path d="M1007.75 53.58L1155.54 52.53" stroke="#132e65" stroke-width="1.5"></path><path d="M1007.75 53.58L943.75 226.24" stroke="#132e65" stroke-width="1.5"></path><path d="M1007.75 53.58L1115.24 207.28" stroke="#132e65" stroke-width="1.5"></path><path d="M1007.75 53.58L1160.51 -60.44" stroke="#132e65" stroke-width="1.5"></path><path d="M1007.75 53.58L851.58 213.25" stroke="#132e65" stroke-width="1.5"></path><path d="M943.75 226.24L943.75 226.24" stroke="#132e65" stroke-width="1.5"></path><path d="M943.75 226.24L976.46 366.54" stroke="#132e65" stroke-width="1.5"></path><path d="M943.75 226.24L1115.24 207.28" stroke="#132e65" stroke-width="1.5"></path><path d="M943.75 226.24L792.31 351.39" stroke="#132e65" stroke-width="1.5"></path><path d="M943.75 226.24L1151.43 348.45" stroke="#132e65" stroke-width="1.5"></path><path d="M976.46 366.54L976.46 366.54" stroke="#132e65" stroke-width="1.5"></path><path d="M976.46 366.54L1151.43 348.45" stroke="#132e65" stroke-width="1.5"></path><path d="M976.46 366.54L792.31 351.39" stroke="#132e65" stroke-width="1.5"></path><path d="M976.46 366.54L939.95 549.04" stroke="#132e65" stroke-width="1.5"></path><path d="M976.46 366.54L851.58 213.25" stroke="#132e65" stroke-width="1.5"></path><path d="M976.46 366.54L1115.24 207.28" stroke="#132e65" stroke-width="1.5"></path><path d="M939.95 549.04L939.95 549.04" stroke="#132e65" stroke-width="1.5"></path><path d="M939.95 549.04L977.14 668.06" stroke="#132e65" stroke-width="1.5"></path><path d="M977.14 668.06L977.14 668.06" stroke="#132e65" stroke-width="1.5"></path><path d="M977.14 668.06L1140.68 514.8" stroke="#132e65" stroke-width="1.5"></path><path d="M977.14 668.06L1261.57 678.23" stroke="#132e65" stroke-width="1.5"></path><path d="M977.14 668.06L976.46 366.54" stroke="#132e65" stroke-width="1.5"></path><path d="M1160.51 -60.44L1160.51 -60.44" stroke="#132e65" stroke-width="1.5"></path><path d="M1160.51 -60.44L1155.54 52.53" stroke="#132e65" stroke-width="1.5"></path><path d="M1160.51 -60.44L1287.22 -70.27" stroke="#132e65" stroke-width="1.5"></path><path d="M1160.51 -60.44L1252.95 69.79" stroke="#132e65" stroke-width="1.5"></path><path d="M1155.54 52.53L1155.54 52.53" stroke="#132e65" stroke-width="1.5"></path><path d="M1155.54 52.53L1252.95 69.79" stroke="#132e65" stroke-width="1.5"></path><path d="M1115.24 207.28L1115.24 207.28" stroke="#132e65" stroke-width="1.5"></path><path d="M1115.24 207.28L1151.43 348.45" stroke="#132e65" stroke-width="1.5"></path><path d="M1115.24 207.28L1155.54 52.53" stroke="#132e65" stroke-width="1.5"></path><path d="M1151.43 348.45L1151.43 348.45" stroke="#132e65" stroke-width="1.5"></path><path d="M1151.43 348.45L1293.82 400.26" stroke="#132e65" stroke-width="1.5"></path><path d="M1151.43 348.45L1140.68 514.8" stroke="#132e65" stroke-width="1.5"></path><path d="M1151.43 348.45L1294.66 190.86" stroke="#132e65" stroke-width="1.5"></path><path d="M1140.68 514.8L1140.68 514.8" stroke="#132e65" stroke-width="1.5"></path><path d="M1140.68 514.8L1293.82 400.26" stroke="#132e65" stroke-width="1.5"></path><path d="M1140.68 514.8L1261.57 678.23" stroke="#132e65" stroke-width="1.5"></path><path d="M1287.22 -70.27L1287.22 -70.27" stroke="#132e65" stroke-width="1.5"></path><path d="M1287.22 -70.27L1428.41 -78.67" stroke="#132e65" stroke-width="1.5"></path><path d="M1287.22 -70.27L1252.95 69.79" stroke="#132e65" stroke-width="1.5"></path><path d="M1287.22 -70.27L1155.54 52.53" stroke="#132e65" stroke-width="1.5"></path><path d="M1252.95 69.79L1252.95 69.79" stroke="#132e65" stroke-width="1.5"></path><path d="M1252.95 69.79L1294.66 190.86" stroke="#132e65" stroke-width="1.5"></path><path d="M1294.66 190.86L1294.66 190.86" stroke="#132e65" stroke-width="1.5"></path><path d="M1294.66 190.86L1452.54 238.44" stroke="#132e65" stroke-width="1.5"></path><path d="M1294.66 190.86L1438.96 84.04" stroke="#132e65" stroke-width="1.5"></path><path d="M1294.66 190.86L1115.24 207.28" stroke="#132e65" stroke-width="1.5"></path><path d="M1294.66 190.86L1155.54 52.53" stroke="#132e65" stroke-width="1.5"></path><path d="M1293.82 400.26L1293.82 400.26" stroke="#132e65" stroke-width="1.5"></path><path d="M1293.82 400.26L1449.76 350.85" stroke="#132e65" stroke-width="1.5"></path><path d="M1293.82 400.26L1402.1 530.47" stroke="#132e65" stroke-width="1.5"></path><path d="M1293.82 400.26L1294.66 190.86" stroke="#132e65" stroke-width="1.5"></path><path d="M1293.82 400.26L1452.54 238.44" stroke="#132e65" stroke-width="1.5"></path><path d="M1261.57 678.23L1261.57 678.23" stroke="#132e65" stroke-width="1.5"></path><path d="M1261.57 678.23L1393.26 667.29" stroke="#132e65" stroke-width="1.5"></path><path d="M1261.57 678.23L1402.1 530.47" stroke="#132e65" stroke-width="1.5"></path><path d="M1428.41 -78.67L1428.41 -78.67" stroke="#132e65" stroke-width="1.5"></path><path d="M1428.41 -78.67L1546.51 -104.08" stroke="#132e65" stroke-width="1.5"></path><path d="M1428.41 -78.67L1438.96 84.04" stroke="#132e65" stroke-width="1.5"></path><path d="M1428.41 -78.67L1252.95 69.79" stroke="#132e65" stroke-width="1.5"></path><path d="M1428.41 -78.67L1596.86 86.85" stroke="#132e65" stroke-width="1.5"></path><path d="M1428.41 -78.67L1160.51 -60.44" stroke="#132e65" stroke-width="1.5"></path><path d="M1438.96 84.04L1438.96 84.04" stroke="#132e65" stroke-width="1.5"></path><path d="M1438.96 84.04L1452.54 238.44" stroke="#132e65" stroke-width="1.5"></path><path d="M1438.96 84.04L1596.86 86.85" stroke="#132e65" stroke-width="1.5"></path><path d="M1452.54 238.44L1452.54 238.44" stroke="#132e65" stroke-width="1.5"></path><path d="M1452.54 238.44L1449.76 350.85" stroke="#132e65" stroke-width="1.5"></path><path d="M1452.54 238.44L1578.37 238.32" stroke="#132e65" stroke-width="1.5"></path><path d="M1452.54 238.44L1548.6 380.74" stroke="#132e65" stroke-width="1.5"></path><path d="M1449.76 350.85L1449.76 350.85" stroke="#132e65" stroke-width="1.5"></path><path d="M1449.76 350.85L1548.6 380.74" stroke="#132e65" stroke-width="1.5"></path><path d="M1449.76 350.85L1578.37 238.32" stroke="#132e65" stroke-width="1.5"></path><path d="M1449.76 350.85L1402.1 530.47" stroke="#132e65" stroke-width="1.5"></path><path d="M1402.1 530.47L1402.1 530.47" stroke="#132e65" stroke-width="1.5"></path><path d="M1402.1 530.47L1393.26 667.29" stroke="#132e65" stroke-width="1.5"></path><path d="M1393.26 667.29L1393.26 667.29" stroke="#132e65" stroke-width="1.5"></path><path d="M1393.26 667.29L1562.59 681" stroke="#132e65" stroke-width="1.5"></path><path d="M1393.26 667.29L1597.63 493.08" stroke="#132e65" stroke-width="1.5"></path><path d="M1546.51 -104.08L1546.51 -104.08" stroke="#132e65" stroke-width="1.5"></path><path d="M1546.51 -104.08L1596.86 86.85" stroke="#132e65" stroke-width="1.5"></path><path d="M1546.51 -104.08L1438.96 84.04" stroke="#132e65" stroke-width="1.5"></path><path d="M1546.51 -104.08L1287.22 -70.27" stroke="#132e65" stroke-width="1.5"></path><path d="M1546.51 -104.08L1252.95 69.79" stroke="#132e65" stroke-width="1.5"></path><path d="M1546.51 -104.08L1578.37 238.32" stroke="#132e65" stroke-width="1.5"></path><path d="M1596.86 86.85L1596.86 86.85" stroke="#132e65" stroke-width="1.5"></path><path d="M1596.86 86.85L1578.37 238.32" stroke="#132e65" stroke-width="1.5"></path><path d="M1578.37 238.32L1578.37 238.32" stroke="#132e65" stroke-width="1.5"></path><path d="M1578.37 238.32L1548.6 380.74" stroke="#132e65" stroke-width="1.5"></path><path d="M1548.6 380.74L1548.6 380.74" stroke="#132e65" stroke-width="1.5"></path><path d="M1548.6 380.74L1597.63 493.08" stroke="#132e65" stroke-width="1.5"></path><path d="M1597.63 493.08L1597.63 493.08" stroke="#132e65" stroke-width="1.5"></path><path d="M1597.63 493.08L1562.59 681" stroke="#132e65" stroke-width="1.5"></path><path d="M1597.63 493.08L1402.1 530.47" stroke="#132e65" stroke-width="1.5"></path><path d="M1597.63 493.08L1449.76 350.85" stroke="#132e65" stroke-width="1.5"></path><path d="M1597.63 493.08L1578.37 238.32" stroke="#132e65" stroke-width="1.5"></path><path d="M1562.59 681L1562.59 681" stroke="#132e65" stroke-width="1.5"></path><path d="M1562.59 681L1402.1 530.47" stroke="#132e65" stroke-width="1.5"></path><path d="M1562.59 681L1548.6 380.74" stroke="#132e65" stroke-width="1.5"></path><path d="M1562.59 681L1261.57 678.23" stroke="#132e65" stroke-width="1.5"></path><circle r="5" cx="-38.46" cy="395.58" fill="#132e65"></circle><circle r="5" cx="-89.55" cy="513.13" fill="#132e65"></circle><circle r="5" cx="-100.05" cy="696.5" fill="#132e65"></circle><circle r="5" cx="41.02" cy="365.73" fill="#132e65"></circle><circle r="5" cx="56.32" cy="522.18" fill="#132e65"></circle><circle r="5" cx="48.58" cy="708.34" fill="#132e65"></circle><circle r="5" cx="203.08" cy="362.88" fill="#132e65"></circle><circle r="5" cx="245.07" cy="550.94" fill="#132e65"></circle><circle r="5" cx="210.07" cy="684.9" fill="#132e65"></circle><circle r="5" cx="367.93" cy="386.21" fill="#132e65"></circle><circle r="5" cx="392.63" cy="547.89" fill="#132e65"></circle><circle r="5" cx="359.46" cy="688.41" fill="#132e65"></circle><circle r="5" cx="532.22" cy="351.53" fill="#132e65"></circle><circle r="5" cx="554.51" cy="503.19" fill="#132e65"></circle><circle r="5" cx="534.74" cy="647.69" fill="#132e65"></circle><circle r="5" cx="677.04" cy="215.14" fill="#132e65"></circle><circle r="5" cx="661.94" cy="401.93" fill="#132e65"></circle><circle r="5" cx="652.78" cy="507.67" fill="#132e65"></circle><circle r="5" cx="645.81" cy="698.68" fill="#132e65"></circle><circle r="5" cx="851.58" cy="213.25" fill="#132e65"></circle><circle r="5" cx="792.31" cy="351.39" fill="#132e65"></circle><circle r="5" cx="861.23" cy="557.26" fill="#132e65"></circle><circle r="5" cx="797.06" cy="700.94" fill="#132e65"></circle><circle r="5" cx="960.9" cy="-103.19" fill="#132e65"></circle><circle r="5" cx="1007.75" cy="53.58" fill="#132e65"></circle><circle r="5" cx="943.75" cy="226.24" fill="#132e65"></circle><circle r="5" cx="976.46" cy="366.54" fill="#132e65"></circle><circle r="5" cx="939.95" cy="549.04" fill="#132e65"></circle><circle r="5" cx="977.14" cy="668.06" fill="#132e65"></circle><circle r="5" cx="1160.51" cy="-60.44" fill="#132e65"></circle><circle r="5" cx="1155.54" cy="52.53" fill="#132e65"></circle><circle r="5" cx="1115.24" cy="207.28" fill="#132e65"></circle><circle r="5" cx="1151.43" cy="348.45" fill="#132e65"></circle><circle r="5" cx="1140.68" cy="514.8" fill="#132e65"></circle><circle r="5" cx="1287.22" cy="-70.27" fill="#132e65"></circle><circle r="5" cx="1252.95" cy="69.79" fill="#132e65"></circle><circle r="5" cx="1294.66" cy="190.86" fill="#132e65"></circle><circle r="5" cx="1293.82" cy="400.26" fill="#132e65"></circle><circle r="5" cx="1261.57" cy="678.23" fill="#132e65"></circle><circle r="5" cx="1428.41" cy="-78.67" fill="#132e65"></circle><circle r="5" cx="1438.96" cy="84.04" fill="#132e65"></circle><circle r="5" cx="1452.54" cy="238.44" fill="#132e65"></circle><circle r="5" cx="1449.76" cy="350.85" fill="#132e65"></circle><circle r="5" cx="1402.1" cy="530.47" fill="#132e65"></circle><circle r="5" cx="1393.26" cy="667.29" fill="#132e65"></circle><circle r="5" cx="1546.51" cy="-104.08" fill="#132e65"></circle><circle r="5" cx="1596.86" cy="86.85" fill="#132e65"></circle><circle r="5" cx="1578.37" cy="238.32" fill="#132e65"></circle><circle r="5" cx="1548.6" cy="380.74" fill="#132e65"></circle><circle r="5" cx="1597.63" cy="493.08" fill="#132e65"></circle><circle r="5" cx="1562.59" cy="681" fill="#132e65"></circle><path d="M219.66 553.71L219.66 553.71" stroke="hsl(228.5, 77.2%, 51.5%)" stroke-width="1.5"></path><path d="M219.66 553.71L204.85 663.39" stroke="hsl(228.5, 77.2%, 51.5%)" stroke-width="1.5"></path><path d="M219.66 553.71L111.09 490.46" stroke="hsl(228.5, 77.2%, 51.5%)" stroke-width="1.5"></path><path d="M219.66 553.71L364.93 538.88" stroke="hsl(228.5, 77.2%, 51.5%)" stroke-width="1.5"></path><path d="M219.66 553.71L42.14 644.27" stroke="hsl(228.5, 77.2%, 51.5%)" stroke-width="1.5"></path><path d="M219.66 553.71L381.12 691.38" stroke="hsl(228.5, 77.2%, 51.5%)" stroke-width="1.5"></path><path d="M204.85 663.39L204.85 663.39" stroke="hsl(228.5, 77.2%, 51.5%)" stroke-width="1.5"></path><path d="M204.85 663.39L42.14 644.27" stroke="hsl(228.5, 77.2%, 51.5%)" stroke-width="1.5"></path><path d="M553.17 514.59L553.17 514.59" stroke="hsl(228.5, 77.2%, 51.5%)" stroke-width="1.5"></path><path d="M553.17 514.59L648 509.61" stroke="hsl(228.5, 77.2%, 51.5%)" stroke-width="1.5"></path><path d="M553.17 514.59L645.91 412.38" stroke="hsl(228.5, 77.2%, 51.5%)" stroke-width="1.5"></path><path d="M553.17 514.59L364.93 538.88" stroke="hsl(228.5, 77.2%, 51.5%)" stroke-width="1.5"></path><path d="M810.81 345.93L810.81 345.93" stroke="hsl(228.5, 77.2%, 51.5%)" stroke-width="1.5"></path><path d="M810.81 345.93L941.42 367.48" stroke="hsl(228.5, 77.2%, 51.5%)" stroke-width="1.5"></path><path d="M810.81 345.93L839.39 509.24" stroke="hsl(228.5, 77.2%, 51.5%)" stroke-width="1.5"></path><path d="M810.81 345.93L645.91 412.38" stroke="hsl(228.5, 77.2%, 51.5%)" stroke-width="1.5"></path><path d="M810.81 345.93L648 509.61" stroke="hsl(228.5, 77.2%, 51.5%)" stroke-width="1.5"></path><path d="M810.81 345.93L1010.27 229.5" stroke="hsl(228.5, 77.2%, 51.5%)" stroke-width="1.5"></path><path d="M810.81 345.93L992.66 507.32" stroke="hsl(228.5, 77.2%, 51.5%)" stroke-width="1.5"></path><path d="M1010.27 229.5L1010.27 229.5" stroke="hsl(228.5, 77.2%, 51.5%)" stroke-width="1.5"></path><path d="M1010.27 229.5L1117.96 209.22" stroke="hsl(228.5, 77.2%, 51.5%)" stroke-width="1.5"></path><path d="M1010.27 229.5L941.42 367.48" stroke="hsl(228.5, 77.2%, 51.5%)" stroke-width="1.5"></path><path d="M1010.27 229.5L1137.93 394.81" stroke="hsl(228.5, 77.2%, 51.5%)" stroke-width="1.5"></path><path d="M1137.93 394.81L1137.93 394.81" stroke="hsl(228.5, 77.2%, 51.5%)" stroke-width="1.5"></path><path d="M1137.93 394.81L1142.9 504.23" stroke="hsl(228.5, 77.2%, 51.5%)" stroke-width="1.5"></path><path d="M1137.93 394.81L1285.83 397.96" stroke="hsl(228.5, 77.2%, 51.5%)" stroke-width="1.5"></path><path d="M1137.93 394.81L992.66 507.32" stroke="hsl(228.5, 77.2%, 51.5%)" stroke-width="1.5"></path><path d="M1137.93 394.81L1117.96 209.22" stroke="hsl(228.5, 77.2%, 51.5%)" stroke-width="1.5"></path><path d="M1137.93 394.81L941.42 367.48" stroke="hsl(228.5, 77.2%, 51.5%)" stroke-width="1.5"></path><path d="M1430.88 -103.36L1430.88 -103.36" stroke="hsl(228.5, 77.2%, 51.5%)" stroke-width="1.5"></path><path d="M1430.88 -103.36L1270.87 -101.24" stroke="hsl(228.5, 77.2%, 51.5%)" stroke-width="1.5"></path><path d="M1430.88 -103.36L1607.87 -67.63" stroke="hsl(228.5, 77.2%, 51.5%)" stroke-width="1.5"></path><path d="M1430.88 -103.36L1426.56 94.92" stroke="hsl(228.5, 77.2%, 51.5%)" stroke-width="1.5"></path><path d="M1430.88 -103.36L1284.3 78.45" stroke="hsl(228.5, 77.2%, 51.5%)" stroke-width="1.5"></path><path d="M1430.88 -103.36L1576.72 85.93" stroke="hsl(228.5, 77.2%, 51.5%)" stroke-width="1.5"></path><path d="M1430.88 -103.36L1147.66 43.7" stroke="hsl(228.5, 77.2%, 51.5%)" stroke-width="1.5"></path><path d="M-86.33 494.23L-86.33 494.23" stroke="hsl(228.5, 77.2%, 51.5%)" stroke-width="1.5"></path><path d="M-86.33 494.23L111.09 490.46" stroke="hsl(228.5, 77.2%, 51.5%)" stroke-width="1.5"></path><path d="M-86.33 494.23L42.14 644.27" stroke="hsl(228.5, 77.2%, 51.5%)" stroke-width="1.5"></path><path d="M-86.33 494.23L-89.8 702.72" stroke="hsl(228.5, 77.2%, 51.5%)" stroke-width="1.5"></path><path d="M-86.33 494.23L219.66 553.71" stroke="hsl(228.5, 77.2%, 51.5%)" stroke-width="1.5"></path><path d="M-89.8 702.72L-89.8 702.72" stroke="hsl(228.5, 77.2%, 51.5%)" stroke-width="1.5"></path><path d="M-89.8 702.72L42.14 644.27" stroke="hsl(228.5, 77.2%, 51.5%)" stroke-width="1.5"></path><path d="M111.09 490.46L111.09 490.46" stroke="hsl(228.5, 77.2%, 51.5%)" stroke-width="1.5"></path><path d="M111.09 490.46L42.14 644.27" stroke="hsl(228.5, 77.2%, 51.5%)" stroke-width="1.5"></path><path d="M42.14 644.27L42.14 644.27" stroke="hsl(228.5, 77.2%, 51.5%)" stroke-width="1.5"></path><path d="M364.93 538.88L364.93 538.88" stroke="hsl(228.5, 77.2%, 51.5%)" stroke-width="1.5"></path><path d="M364.93 538.88L381.12 691.38" stroke="hsl(228.5, 77.2%, 51.5%)" stroke-width="1.5"></path><path d="M364.93 538.88L204.85 663.39" stroke="hsl(228.5, 77.2%, 51.5%)" stroke-width="1.5"></path><path d="M364.93 538.88L500.71 700.41" stroke="hsl(228.5, 77.2%, 51.5%)" stroke-width="1.5"></path><path d="M364.93 538.88L111.09 490.46" stroke="hsl(228.5, 77.2%, 51.5%)" stroke-width="1.5"></path><path d="M381.12 691.38L381.12 691.38" stroke="hsl(228.5, 77.2%, 51.5%)" stroke-width="1.5"></path><path d="M381.12 691.38L500.71 700.41" stroke="hsl(228.5, 77.2%, 51.5%)" stroke-width="1.5"></path><path d="M500.71 700.41L500.71 700.41" stroke="hsl(228.5, 77.2%, 51.5%)" stroke-width="1.5"></path><path d="M500.71 700.41L661.23 672.82" stroke="hsl(228.5, 77.2%, 51.5%)" stroke-width="1.5"></path><path d="M645.91 412.38L645.91 412.38" stroke="hsl(228.5, 77.2%, 51.5%)" stroke-width="1.5"></path><path d="M645.91 412.38L648 509.61" stroke="hsl(228.5, 77.2%, 51.5%)" stroke-width="1.5"></path><path d="M645.91 412.38L839.39 509.24" stroke="hsl(228.5, 77.2%, 51.5%)" stroke-width="1.5"></path><path d="M648 509.61L648 509.61" stroke="hsl(228.5, 77.2%, 51.5%)" stroke-width="1.5"></path><path d="M648 509.61L661.23 672.82" stroke="hsl(228.5, 77.2%, 51.5%)" stroke-width="1.5"></path><path d="M661.23 672.82L661.23 672.82" stroke="hsl(228.5, 77.2%, 51.5%)" stroke-width="1.5"></path><path d="M661.23 672.82L553.17 514.59" stroke="hsl(228.5, 77.2%, 51.5%)" stroke-width="1.5"></path><path d="M661.23 672.82L839.39 509.24" stroke="hsl(228.5, 77.2%, 51.5%)" stroke-width="1.5"></path><path d="M661.23 672.82L645.91 412.38" stroke="hsl(228.5, 77.2%, 51.5%)" stroke-width="1.5"></path><path d="M661.23 672.82L381.12 691.38" stroke="hsl(228.5, 77.2%, 51.5%)" stroke-width="1.5"></path><path d="M839.39 509.24L839.39 509.24" stroke="hsl(228.5, 77.2%, 51.5%)" stroke-width="1.5"></path><path d="M839.39 509.24L992.66 507.32" stroke="hsl(228.5, 77.2%, 51.5%)" stroke-width="1.5"></path><path d="M839.39 509.24L941.42 367.48" stroke="hsl(228.5, 77.2%, 51.5%)" stroke-width="1.5"></path><path d="M941.42 367.48L941.42 367.48" stroke="hsl(228.5, 77.2%, 51.5%)" stroke-width="1.5"></path><path d="M941.42 367.48L992.66 507.32" stroke="hsl(228.5, 77.2%, 51.5%)" stroke-width="1.5"></path><path d="M941.42 367.48L1117.96 209.22" stroke="hsl(228.5, 77.2%, 51.5%)" stroke-width="1.5"></path><path d="M992.66 507.32L992.66 507.32" stroke="hsl(228.5, 77.2%, 51.5%)" stroke-width="1.5"></path><path d="M992.66 507.32L1142.9 504.23" stroke="hsl(228.5, 77.2%, 51.5%)" stroke-width="1.5"></path><path d="M942.53 684.66L942.53 684.66" stroke="hsl(228.5, 77.2%, 51.5%)" stroke-width="1.5"></path><path d="M942.53 684.66L1125.2 694.74" stroke="hsl(228.5, 77.2%, 51.5%)" stroke-width="1.5"></path><path d="M942.53 684.66L992.66 507.32" stroke="hsl(228.5, 77.2%, 51.5%)" stroke-width="1.5"></path><path d="M942.53 684.66L839.39 509.24" stroke="hsl(228.5, 77.2%, 51.5%)" stroke-width="1.5"></path><path d="M942.53 684.66L1142.9 504.23" stroke="hsl(228.5, 77.2%, 51.5%)" stroke-width="1.5"></path><path d="M942.53 684.66L661.23 672.82" stroke="hsl(228.5, 77.2%, 51.5%)" stroke-width="1.5"></path><path d="M942.53 684.66L941.42 367.48" stroke="hsl(228.5, 77.2%, 51.5%)" stroke-width="1.5"></path><path d="M1147.66 43.7L1147.66 43.7" stroke="hsl(228.5, 77.2%, 51.5%)" stroke-width="1.5"></path><path d="M1147.66 43.7L1284.3 78.45" stroke="hsl(228.5, 77.2%, 51.5%)" stroke-width="1.5"></path><path d="M1117.96 209.22L1117.96 209.22" stroke="hsl(228.5, 77.2%, 51.5%)" stroke-width="1.5"></path><path d="M1117.96 209.22L1284.61 221.15" stroke="hsl(228.5, 77.2%, 51.5%)" stroke-width="1.5"></path><path d="M1117.96 209.22L1147.66 43.7" stroke="hsl(228.5, 77.2%, 51.5%)" stroke-width="1.5"></path><path d="M1142.9 504.23L1142.9 504.23" stroke="hsl(228.5, 77.2%, 51.5%)" stroke-width="1.5"></path><path d="M1142.9 504.23L1291.93 552.5" stroke="hsl(228.5, 77.2%, 51.5%)" stroke-width="1.5"></path><path d="M1142.9 504.23L1285.83 397.96" stroke="hsl(228.5, 77.2%, 51.5%)" stroke-width="1.5"></path><path d="M1125.2 694.74L1125.2 694.74" stroke="hsl(228.5, 77.2%, 51.5%)" stroke-width="1.5"></path><path d="M1125.2 694.74L1274.65 666.3" stroke="hsl(228.5, 77.2%, 51.5%)" stroke-width="1.5"></path><path d="M1125.2 694.74L1142.9 504.23" stroke="hsl(228.5, 77.2%, 51.5%)" stroke-width="1.5"></path><path d="M1125.2 694.74L1291.93 552.5" stroke="hsl(228.5, 77.2%, 51.5%)" stroke-width="1.5"></path><path d="M1125.2 694.74L992.66 507.32" stroke="hsl(228.5, 77.2%, 51.5%)" stroke-width="1.5"></path><path d="M1125.2 694.74L1137.93 394.81" stroke="hsl(228.5, 77.2%, 51.5%)" stroke-width="1.5"></path><path d="M1270.87 -101.24L1270.87 -101.24" stroke="hsl(228.5, 77.2%, 51.5%)" stroke-width="1.5"></path><path d="M1270.87 -101.24L1284.3 78.45" stroke="hsl(228.5, 77.2%, 51.5%)" stroke-width="1.5"></path><path d="M1270.87 -101.24L1147.66 43.7" stroke="hsl(228.5, 77.2%, 51.5%)" stroke-width="1.5"></path><path d="M1270.87 -101.24L1426.56 94.92" stroke="hsl(228.5, 77.2%, 51.5%)" stroke-width="1.5"></path><path d="M1270.87 -101.24L1284.61 221.15" stroke="hsl(228.5, 77.2%, 51.5%)" stroke-width="1.5"></path><path d="M1284.3 78.45L1284.3 78.45" stroke="hsl(228.5, 77.2%, 51.5%)" stroke-width="1.5"></path><path d="M1284.3 78.45L1284.61 221.15" stroke="hsl(228.5, 77.2%, 51.5%)" stroke-width="1.5"></path><path d="M1284.3 78.45L1426.56 94.92" stroke="hsl(228.5, 77.2%, 51.5%)" stroke-width="1.5"></path><path d="M1284.61 221.15L1284.61 221.15" stroke="hsl(228.5, 77.2%, 51.5%)" stroke-width="1.5"></path><path d="M1284.61 221.15L1395.66 346.12" stroke="hsl(228.5, 77.2%, 51.5%)" stroke-width="1.5"></path><path d="M1285.83 397.96L1285.83 397.96" stroke="hsl(228.5, 77.2%, 51.5%)" stroke-width="1.5"></path><path d="M1285.83 397.96L1395.66 346.12" stroke="hsl(228.5, 77.2%, 51.5%)" stroke-width="1.5"></path><path d="M1285.83 397.96L1291.93 552.5" stroke="hsl(228.5, 77.2%, 51.5%)" stroke-width="1.5"></path><path d="M1285.83 397.96L1411.94 492.4" stroke="hsl(228.5, 77.2%, 51.5%)" stroke-width="1.5"></path><path d="M1285.83 397.96L1284.61 221.15" stroke="hsl(228.5, 77.2%, 51.5%)" stroke-width="1.5"></path><path d="M1291.93 552.5L1291.93 552.5" stroke="hsl(228.5, 77.2%, 51.5%)" stroke-width="1.5"></path><path d="M1291.93 552.5L1274.65 666.3" stroke="hsl(228.5, 77.2%, 51.5%)" stroke-width="1.5"></path><path d="M1291.93 552.5L1411.94 492.4" stroke="hsl(228.5, 77.2%, 51.5%)" stroke-width="1.5"></path><path d="M1291.93 552.5L1460.63 650.62" stroke="hsl(228.5, 77.2%, 51.5%)" stroke-width="1.5"></path><path d="M1274.65 666.3L1274.65 666.3" stroke="hsl(228.5, 77.2%, 51.5%)" stroke-width="1.5"></path><path d="M1274.65 666.3L1460.63 650.62" stroke="hsl(228.5, 77.2%, 51.5%)" stroke-width="1.5"></path><path d="M1274.65 666.3L1142.9 504.23" stroke="hsl(228.5, 77.2%, 51.5%)" stroke-width="1.5"></path><path d="M1426.56 94.92L1426.56 94.92" stroke="hsl(228.5, 77.2%, 51.5%)" stroke-width="1.5"></path><path d="M1426.56 94.92L1576.72 85.93" stroke="hsl(228.5, 77.2%, 51.5%)" stroke-width="1.5"></path><path d="M1426.56 94.92L1284.61 221.15" stroke="hsl(228.5, 77.2%, 51.5%)" stroke-width="1.5"></path><path d="M1426.56 94.92L1607.87 -67.63" stroke="hsl(228.5, 77.2%, 51.5%)" stroke-width="1.5"></path><path d="M1395.66 346.12L1395.66 346.12" stroke="hsl(228.5, 77.2%, 51.5%)" stroke-width="1.5"></path><path d="M1395.66 346.12L1411.94 492.4" stroke="hsl(228.5, 77.2%, 51.5%)" stroke-width="1.5"></path><path d="M1411.94 492.4L1411.94 492.4" stroke="hsl(228.5, 77.2%, 51.5%)" stroke-width="1.5"></path><path d="M1460.63 650.62L1460.63 650.62" stroke="hsl(228.5, 77.2%, 51.5%)" stroke-width="1.5"></path><path d="M1460.63 650.62L1569.81 666.63" stroke="hsl(228.5, 77.2%, 51.5%)" stroke-width="1.5"></path><path d="M1460.63 650.62L1411.94 492.4" stroke="hsl(228.5, 77.2%, 51.5%)" stroke-width="1.5"></path><path d="M1460.63 650.62L1590.92 504.38" stroke="hsl(228.5, 77.2%, 51.5%)" stroke-width="1.5"></path><path d="M1460.63 650.62L1285.83 397.96" stroke="hsl(228.5, 77.2%, 51.5%)" stroke-width="1.5"></path><path d="M1607.87 -67.63L1607.87 -67.63" stroke="hsl(228.5, 77.2%, 51.5%)" stroke-width="1.5"></path><path d="M1607.87 -67.63L1576.72 85.93" stroke="hsl(228.5, 77.2%, 51.5%)" stroke-width="1.5"></path><path d="M1576.72 85.93L1576.72 85.93" stroke="hsl(228.5, 77.2%, 51.5%)" stroke-width="1.5"></path><path d="M1576.72 85.93L1608.7 342.63" stroke="hsl(228.5, 77.2%, 51.5%)" stroke-width="1.5"></path><path d="M1576.72 85.93L1284.3 78.45" stroke="hsl(228.5, 77.2%, 51.5%)" stroke-width="1.5"></path><path d="M1576.72 85.93L1395.66 346.12" stroke="hsl(228.5, 77.2%, 51.5%)" stroke-width="1.5"></path><path d="M1608.7 342.63L1608.7 342.63" stroke="hsl(228.5, 77.2%, 51.5%)" stroke-width="1.5"></path><path d="M1608.7 342.63L1590.92 504.38" stroke="hsl(228.5, 77.2%, 51.5%)" stroke-width="1.5"></path><path d="M1608.7 342.63L1395.66 346.12" stroke="hsl(228.5, 77.2%, 51.5%)" stroke-width="1.5"></path><path d="M1608.7 342.63L1411.94 492.4" stroke="hsl(228.5, 77.2%, 51.5%)" stroke-width="1.5"></path><path d="M1590.92 504.38L1590.92 504.38" stroke="hsl(228.5, 77.2%, 51.5%)" stroke-width="1.5"></path><path d="M1590.92 504.38L1569.81 666.63" stroke="hsl(228.5, 77.2%, 51.5%)" stroke-width="1.5"></path><path d="M1590.92 504.38L1411.94 492.4" stroke="hsl(228.5, 77.2%, 51.5%)" stroke-width="1.5"></path><path d="M1590.92 504.38L1395.66 346.12" stroke="hsl(228.5, 77.2%, 51.5%)" stroke-width="1.5"></path><path d="M1569.81 666.63L1569.81 666.63" stroke="hsl(228.5, 77.2%, 51.5%)" stroke-width="1.5"></path><circle r="25" cx="219.66" cy="553.71" fill="url(#SvgjsRadialGradient2414)"></circle><circle r="25" cx="204.85" cy="663.39" fill="url(#SvgjsRadialGradient2414)"></circle><circle r="25" cx="553.17" cy="514.59" fill="url(#SvgjsRadialGradient2414)"></circle><circle r="25" cx="810.81" cy="345.93" fill="url(#SvgjsRadialGradient2414)"></circle><circle r="25" cx="1010.27" cy="229.5" fill="url(#SvgjsRadialGradient2414)"></circle><circle r="25" cx="1137.93" cy="394.81" fill="url(#SvgjsRadialGradient2414)"></circle><circle r="25" cx="1430.88" cy="-103.36" fill="url(#SvgjsRadialGradient2414)"></circle><circle r="5" cx="-86.33" cy="494.23" fill="#8b9ad9"></circle><circle r="5" cx="-89.8" cy="702.72" fill="#8b9ad9"></circle><circle r="5" cx="111.09" cy="490.46" fill="#8b9ad9"></circle><circle r="5" cx="42.14" cy="644.27" fill="#8b9ad9"></circle><circle r="5" cx="364.93" cy="538.88" fill="#8b9ad9"></circle><circle r="5" cx="381.12" cy="691.38" fill="#8b9ad9"></circle><circle r="5" cx="500.71" cy="700.41" fill="#8b9ad9"></circle><circle r="5" cx="645.91" cy="412.38" fill="#8b9ad9"></circle><circle r="5" cx="648" cy="509.61" fill="#8b9ad9"></circle><circle r="5" cx="661.23" cy="672.82" fill="#8b9ad9"></circle><circle r="5" cx="839.39" cy="509.24" fill="#8b9ad9"></circle><circle r="5" cx="941.42" cy="367.48" fill="#8b9ad9"></circle><circle r="5" cx="992.66" cy="507.32" fill="#8b9ad9"></circle><circle r="5" cx="942.53" cy="684.66" fill="#8b9ad9"></circle><circle r="5" cx="1147.66" cy="43.7" fill="#8b9ad9"></circle><circle r="5" cx="1117.96" cy="209.22" fill="#8b9ad9"></circle><circle r="5" cx="1142.9" cy="504.23" fill="#8b9ad9"></circle><circle r="5" cx="1125.2" cy="694.74" fill="#8b9ad9"></circle><circle r="5" cx="1270.87" cy="-101.24" fill="#8b9ad9"></circle><circle r="5" cx="1284.3" cy="78.45" fill="#8b9ad9"></circle><circle r="5" cx="1284.61" cy="221.15" fill="#8b9ad9"></circle><circle r="5" cx="1285.83" cy="397.96" fill="#8b9ad9"></circle><circle r="5" cx="1291.93" cy="552.5" fill="#8b9ad9"></circle><circle r="5" cx="1274.65" cy="666.3" fill="#8b9ad9"></circle><circle r="5" cx="1426.56" cy="94.92" fill="#8b9ad9"></circle><circle r="5" cx="1395.66" cy="346.12" fill="#8b9ad9"></circle><circle r="5" cx="1411.94" cy="492.4" fill="#8b9ad9"></circle><circle r="5" cx="1460.63" cy="650.62" fill="#8b9ad9"></circle><circle r="5" cx="1607.87" cy="-67.63" fill="#8b9ad9"></circle><circle r="5" cx="1576.72" cy="85.93" fill="#8b9ad9"></circle><circle r="5" cx="1608.7" cy="342.63" fill="#8b9ad9"></circle><circle r="5" cx="1590.92" cy="504.38" fill="#8b9ad9"></circle><circle r="5" cx="1569.81" cy="666.63" fill="#8b9ad9"></circle></g><defs><mask id="SvgjsMask2412"><rect width="1440" height="560" fill="#ffffff"></rect></mask><radialGradient cx="100%" cy="100%" r="1545.06" gradientUnits="userSpaceOnUse" id="SvgjsRadialGradient2413"><stop stop-color="rgba(14, 42, 71, 1)" offset="0"></stop><stop stop-color="rgba(255, 255, 255, 0.35)" offset="0.74"></stop><stop stop-color="rgba(255, 255, 255, 0.35)" offset="1"></stop></radialGradient><radialGradient id="SvgjsRadialGradient2414"><stop stop-color="#ffffff" offset="0.1"></stop><stop stop-color="#1735b3" offset="0.2"></stop><stop stop-color="rgba(23, 53, 179, 0)" offset="1"></stop></radialGradient></defs></svg>